<?xml version="1.0" encoding="utf-8"?>
<svg viewBox="0 106 691 277" xmlns="http://www.w3.org/2000/svg" xmlns:bx="https://boxy-svg.com">
  <defs>
    <bx:grid x="3.052" y="105.584" width="688" height="278.212"/>
    <linearGradient gradientUnits="userSpaceOnUse" x1="345.474" y1="106.289" x2="345.474" y2="369.949" id="gradient-1">
      <stop offset="0" style="stop-color: #bada55"/>
      <stop offset="1" style="stop-color: rgb(141, 41, 41);"/>
    </linearGradient>
  </defs>
  <path d="M 43.242 207.635 C 59.999 207.635 85.673 206.824 101.077 206.824 L 101.077 250.064 C 81.888 250.064 59.458 250.064 43.242 250.875 L 43.242 315.197 C 68.647 313.576 94.051 311.412 119.724 310.601 L 119.724 352.218 L 0 361.679 L 0 106.289 L 119.724 106.289 L 119.724 149.53 L 43.242 149.53 L 43.242 207.635 Z M 199.843 204.663 L 259.03 204.663 L 259.03 247.903 L 199.843 247.903 L 199.843 340.134 L 157.41 350.032 L 157.41 106.289 L 278.218 106.289 L 278.218 149.53 L 199.843 149.53 L 199.843 204.663 Z M 348.484 308.17 C 373.078 308.709 397.94 310.604 421.994 311.953 L 421.994 343.886 C 383.348 341.452 344.701 334.916 305.244 334.103 L 305.244 106.289 L 348.484 106.289 L 348.484 308.17 Z M 457.472 346.257 C 471.255 347.069 486.855 353.537 500.908 355.156 L 500.908 106.289 L 458.478 106.289 L 457.472 346.257 Z M 690.359 106.289 L 635.496 237.904 L 690.949 369.949 C 674.732 367.787 657.927 365.649 641.711 362.946 L 610.633 295.199 L 579.016 363.812 C 563.338 361.107 548.204 358.664 532.532 356.502 L 588.204 236.281 L 537.935 106.289 L 584.417 106.289 L 612.794 178.988 L 643.064 106.289 L 690.359 106.289 Z" style="fill: url(#gradient-1);"/>
</svg>