<?xml version="1.0" encoding="utf-8"?>
<svg version="1.1" viewBox="36 -1 264 74" xmlns="http://www.w3.org/2000/svg" xmlns:bx="https://boxy-svg.com">
  <defs>
    <bx:grid x="37.621" y="-0.57" width="264.84" height="74.28"/>
  </defs>
  <path d="M 167.19 14.4 L 167.19 57.6 L 159.69 57.6 L 159.69 23.7 L 159.59 23.7 L 146.19 57.6 L 141.19 57.6 L 127.49 23.7 L 127.39 23.7 L 127.39 57.6 L 120.49 57.6 L 120.49 14.4 L 131.29 14.4 L 143.69 46.4 L 143.89 46.4 L 156.99 14.4 L 167.19 14.4 Z M 190.288 52.3 C 191.388 52.3 192.588 52.1 193.888 51.5 C 195.188 51 196.348 49.948 197.488 49.5 L 197.488 56.3 C 196.288 57 194.988 57.5 193.488 57.8 C 191.988 58.1 190.388 58.3 188.588 58.3 C 183.988 58.3 180.288 56.9 177.488 54 C 174.588 51.1 173.188 47.4 173.188 43 C 173.188 38 174.688 33.9 177.588 30.7 C 180.488 27.5 184.588 25.9 189.988 25.9 C 191.388 25.9 192.788 26.1 194.088 26.4 C 195.488 26.7 196.588 27.2 197.388 27.6 L 197.388 34.6 C 196.288 33.8 195.088 33.1 193.988 32.7 C 192.788 32.3 191.588 32 190.388 32 C 187.488 32 185.188 32.9 183.388 34.8 C 181.588 36.7 180.788 39.2 180.788 42.4 C 180.788 45.5 181.688 48 183.388 49.7 C 185.088 51.4 187.388 52.3 190.288 52.3 Z M 211.115 34.8 C 211.115 35.8 211.415 36.7 212.115 37.3 C 212.815 37.9 214.215 38.6 216.515 39.5 C 219.415 40.7 221.515 42 222.615 43.4 C 223.815 44.9 224.415 46.6 224.415 48.7 C 224.415 51.6 223.315 53.9 221.015 55.7 C 218.815 57.5 215.715 58.3 211.915 58.3 C 210.615 58.3 209.215 58.1 207.615 57.8 C 206.015 57.5 204.715 57.1 203.615 56.6 L 203.615 49.4 C 204.915 50.3 206.415 51.1 207.915 51.6 C 209.415 52.1 210.815 52.4 212.115 52.4 C 213.715 52.4 215.015 52.2 215.715 51.7 C 216.515 51.2 216.915 50.5 216.915 49.4 C 216.915 48.4 216.515 47.6 215.715 46.8 C 214.915 46.1 213.315 45.3 211.115 44.4 C 208.415 43.3 206.515 42 205.415 40.6 C 204.315 39.2 203.715 37.4 203.715 35.2 C 203.715 32.4 204.815 30.1 207.015 28.3 C 209.215 26.5 212.115 25.6 215.615 25.6 C 216.715 25.6 217.915 25.7 219.215 26 C 220.515 26.3 221.715 26.6 222.615 26.9 L 222.615 34 C 221.615 33.4 220.515 32.8 219.215 32.3 C 217.915 31.8 216.615 31.6 215.415 31.6 C 214.015 31.6 212.915 31.9 212.215 32.4 C 211.515 33.1 211.115 33.8 211.115 34.8 Z M 227.515 42.6 C 227.515 37.5 229.015 33.4 231.815 30.4 C 234.715 27.4 238.715 25.9 243.815 25.9 C 248.615 25.9 252.415 27.3 255.115 30.2 C 257.815 33.1 259.215 37 259.215 41.9 C 259.215 46.9 257.715 50.9 254.915 53.9 C 252.015 56.9 248.115 58.4 243.115 58.4 C 238.315 58.4 234.515 57 231.715 54.2 C 229.015 51.3 227.515 47.4 227.515 42.6 Z M 235.115 42.3 C 235.115 45.5 235.815 48 237.315 49.7 C 238.815 51.4 240.915 52.3 243.615 52.3 C 246.215 52.3 248.315 51.5 249.715 49.7 C 251.115 48 251.815 45.5 251.815 42.1 C 251.815 38.8 251.115 36.3 249.715 34.5 C 248.315 32.8 246.215 31.9 243.715 31.9 C 241.015 31.9 239.015 32.8 237.515 34.6 C 235.915 36.5 235.115 39 235.115 42.3 Z M 283.515 32.6 L 272.615 32.6 L 272.615 57.6 L 265.215 57.6 L 265.215 32.6 L 260.015 32.6 L 260.015 26.6 L 265.215 26.6 L 265.215 22.3 C 265.215 19.1 266.315 16.4 268.415 14.3 C 270.515 12.2 273.215 11.2 276.515 11.2 C 277.415 11.2 278.215 11.3 278.915 11.3 C 279.615 11.3 280.215 11.5 280.715 11.7 L 280.715 18 C 280.515 17.9 280.015 17.7 279.415 17.5 C 278.815 17.3 278.115 17.2 277.315 17.2 C 275.815 17.2 274.615 17.7 273.815 18.6 C 273.015 19.5 272.615 21 272.615 22.8 L 272.615 26.5 L 283.515 26.5 L 283.515 19.5 L 290.815 17.3 L 290.815 26.5 L 298.215 26.5 L 298.215 32.5 L 290.815 32.5 L 290.815 47 C 290.815 48.9 291.215 50.2 291.815 51 C 292.515 51.8 293.615 52.2 295.115 52.2 C 295.515 52.2 296.015 52.1 296.615 51.9 C 297.215 51.7 297.715 51.5 298.115 51.2 L 298.115 57.2 C 297.615 57.5 296.915 57.7 295.815 57.9 C 294.715 58.1 293.715 58.2 292.615 58.2 C 289.515 58.2 287.215 57.4 285.715 55.8 C 284.215 54.2 283.415 51.7 283.415 48.4 L 283.515 32.6 Z" style="fill: rgb(85, 83, 83);"/>
  <rect width="34.2" height="34.2" rx="9.066" ry="9.066" style="fill: rgb(247, 0, 255);" x="38.24"/>
  <rect x="76.04" fill="#7FBA00" width="34.2" height="34.2" rx="17.1" ry="17.1"/>
  <rect y="37.8" width="34.2" height="34.2" rx="10.577" ry="10.577" style="fill: rgb(209, 112, 0);" x="38.24"/>
  <rect x="76.04" y="37.8" width="34.2" height="34.2" rx="8.756" ry="8.756" style="fill: rgb(255, 0, 89);"/>
</svg>