<?xml version="1.0" encoding="utf-8"?>
<svg width="120" height="60" viewBox="23 17 78 31" xmlns="http://www.w3.org/2000/svg" xmlns:bx="https://boxy-svg.com">
  <defs>
    <linearGradient gradientUnits="userSpaceOnUse" x1="1861.218" y1="154.478" x2="1861.218" y2="814.694" id="gradient-0" gradientTransform="matrix(0.999656, 0.026216, -0.026932, 1.026932, 38.207516, -21.230843)">
      <stop offset="0" style="stop-color: #bada55"/>
      <stop offset="1" style="stop-color: #758d29"/>
    </linearGradient>
    <linearGradient gradientUnits="userSpaceOnUse" x1="1861.218" y1="154.478" x2="1861.218" y2="814.694" id="gradient-2" gradientTransform="matrix(1, 0, 0, 1, 33.407471, 31.723696)">
      <stop offset="0" style="stop-color: rgba(0, 111, 22, 1)"/>
      <stop offset="1" style="stop-color: rgba(0, 9, 2, 1)"/>
    </linearGradient>
    <linearGradient gradientUnits="userSpaceOnUse" x1="50.023" y1="35.854" x2="50.023" y2="55.984" id="gradient-3" gradientTransform="matrix(-0.671878, -0.740662, 0.800479, -0.696268, 56.99401, 102.523011)">
      <stop offset="0" style=""/>
      <stop offset="1" style="stop-color: rgba(8, 153, 0, 1)"/>
    </linearGradient>
    <radialGradient gradientUnits="userSpaceOnUse" cx="37.976" cy="36.847" r="14.108" id="gradient-4">
      <stop offset="0" style="stop-color: rgba(0, 105, 16, 1)"/>
      <stop offset="1" style="stop-color: rgba(0, 3, 0, 1)"/>
    </radialGradient>
    <bx:grid x="23.409" y="17.127" width="76" height="31"/>
  </defs>
  <g clip-path="url(#SVGID_2_)" transform="matrix(.041468 0 0 .041468 7.125862 11.278637)">
    <path d="M 2132.125 594.06 C 2133.325 462.46 2247.625 418.66 2248.925 418.16 C 2247.925 415.06 2230.625 355.66 2188.725 294.36 C 2152.425 241.36 2114.825 188.56 2055.525 187.36 C 1997.325 186.26 1978.525 221.96 1911.925 221.96 C 1845.325 221.96 1824.525 188.46 1769.325 186.26 C 1712.025 184.06 1668.525 243.56 1631.925 296.36 C 1557.125 404.46 1500.025 601.76 1576.725 734.76 C 1614.825 800.96 1682.925 842.76 1756.825 843.86 C 1813.025 844.96 1872.693 779.388 1907.093 779.388 C 1941.493 779.388 1999.325 852.86 2067.025 845.96 C 2095.425 844.76 2175.025 834.56 2226.225 759.66 C 2222.125 757.06 2131.125 704.16 2132.125 594.06" style="stroke: url(#gradient-0); fill: url(#gradient-2);" transform="matrix(-1, 0, 0, -1, 3789.248779, 1032.618103)"/>
  </g>
  <path d="M 57.551 38.73 L 55.451 45.062 L 52.775 45.062 L 59.613 24.932 L 62.748 24.932 L 69.615 45.062 L 66.835 45.062 L 64.683 38.73 L 57.551 38.73 Z M 64.153 36.698 L 62.183 30.905 C 61.735 29.59 61.437 28.395 61.138 27.231 L 61.08 27.231 L 60.065 30.886 L 58.095 36.708 L 64.153 36.698 Z" enable-background="new " style="fill: url(#gradient-3);"/>
  <path d="M 23.988 31.54 L 23.868 26.82 L 26.228 26.82 L 26.348 29.3 L 26.406 29.3 C 27.48 27.538 29.184 26.493 31.544 26.493 C 35.04 26.493 37.664 29.45 37.664 33.841 C 37.664 39.037 34.5 41.604 31.094 41.604 C 29.182 41.604 27.511 40.766 26.644 39.336 L 26.586 39.336 L 26.586 47.2 L 23.986 47.2 L 23.988 31.54 Z M 26.588 35.392 C 26.588 35.792 26.646 36.138 26.708 36.466 C 27.185 38.286 28.768 39.543 30.652 39.543 C 33.43 39.543 35.052 37.275 35.052 33.957 C 35.052 31.057 33.53 28.583 30.752 28.583 C 28.952 28.583 27.289 29.869 26.779 31.838 C 26.669 32.186 26.609 32.547 26.601 32.912 L 26.601 35.392 L 26.588 35.392 Z M 41.844 34.526 C 41.902 38.08 44.174 39.544 46.799 39.544 C 48.682 39.544 49.814 39.216 50.801 38.798 L 51.249 40.681 C 50.324 41.101 48.749 41.577 46.443 41.577 C 41.993 41.577 39.335 38.649 39.335 34.291 C 39.335 29.933 41.902 26.495 46.115 26.495 C 50.835 26.495 52.085 30.645 52.085 33.295 C 52.085 33.835 52.027 34.249 51.985 34.518 L 41.844 34.526 Z M 49.549 32.643 C 49.579 30.973 48.861 28.373 45.904 28.373 C 43.246 28.373 42.081 30.823 41.874 32.643 L 49.549 32.643 Z" enable-background="new " style="fill: url(#gradient-4);"/>
</svg>