<?xml version="1.0" encoding="utf-8"?>
<svg version="1.1" id="svg2" width="5833px" height="1080" viewBox="-81 -295 6019 1416" xmlns="http://www.w3.org/2000/svg" xmlns:bx="https://boxy-svg.com">
  <defs id="defs6">
    <clipPath clipPathUnits="userSpaceOnUse" id="clipPath16">
      <path d="M 0,166.885 H 628.238 V 0 H 0 Z" id="path14"/>
    </clipPath>
    <clipPath clipPathUnits="userSpaceOnUse" id="clip-1">
      <path d="M 0,166.885 H 628.238 V 0 H 0 Z" id="path-1"/>
    </clipPath>
    <linearGradient id="gradient-2" bx:pinned="true"/>
    <linearGradient gradientUnits="userSpaceOnUse" x1="-326.211" y1="-46.79" x2="-326.211" y2="36.646" id="gradient-0">
      <stop offset="0" style="stop-color: rgba(13, 126, 158, 1)"/>
      <stop offset="1" style="stop-color: rgb(10, 5, 64);"/>
    </linearGradient>
    <linearGradient gradientUnits="userSpaceOnUse" x1="-235.865" y1="-46.383" x2="-235.865" y2="36.205" id="gradient-1" gradientTransform="matrix(0.996615, 0.082687, -0.053478, 1.001871, -0.28181, 19.740766)">
      <stop offset="0" style="stop-color: rgba(13, 126, 158, 1)"/>
      <stop offset="1" style="stop-color: rgb(5, 11, 64);"/>
    </linearGradient>
    <bx:grid x="-26" y="-26" width="5879" height="1131"/>
  </defs>
  <g id="g8" transform="matrix(12.944053,0,0,-12.944053,-540.03625,1620.0233)">
    <g id="g10">
      <g id="g12" clip-path="url(#clipPath16)">
        <g id="g18" transform="translate(558.9328,88.5098)">
          <path d="M -155.931 35.165 L -155.931 34.165 L -155.931 -23.479 C -155.9 -24.454 -155.92 -25.463 -156.083 -26.201 C -156.269 -27.102 -156.682 -28.238 -157.679 -29.263 C -158.712 -30.324 -160.104 -31.063 -162.588 -31.063 C -165.036 -31.063 -166.422 -30.325 -167.453 -29.264 C -168.449 -28.238 -168.872 -27.067 -169.041 -26.175 C -169.225 -25.453 -169.236 -24.428 -169.211 -23.448 L -169.211 35.165 L -190.901 35.165 L -190.901 -21.652 C -190.925 -23.122 -190.81 -26.112 -190.722 -26.918 C -189.958 -34.414 -186.546 -39.64 -181.545 -42.748 C -176.564 -45.844 -169.836 -47.079 -162.588 -47.079 C -155.326 -47.079 -148.593 -45.844 -143.608 -42.749 C -138.601 -39.64 -135.188 -34.419 -134.409 -26.929 C -134.296 -26.113 -134.153 -23.136 -134.235 -21.632 L -134.235 35.165 Z M -326.03 -20.433 L -334.997 35.165 L -368.599 35.165 L -370.327 -44.713 L -348.848 -44.713 L -348.39 17.933 L -336.753 -44.713 L -315.343 -44.713 L -303.693 17.944 L -303.234 -44.713 L -281.705 -44.713 L -283.492 35.165 L -317.057 35.165 Z M -449.464 -44.713 L -426.364 -44.713 L -416.366 21.595 L -406.608 -44.713 L -383.652 -44.713 L -398.387 35.165 L -434.668 35.165 Z M -242.263 14.116 C -242.598 15.514 -242.499 16.923 -242.33 17.705 C -242.08 18.864 -241.643 19.872 -240.706 20.724 C -239.738 21.602 -238.468 22.135 -236.248 22.135 C -234.182 22.135 -232.782 21.586 -231.702 20.501 C -230.626 19.42 -230.081 18.051 -230.113 16.123 L -230.113 11.361 L -230.113 10.361 L -229.113 10.361 L -209.913 10.361 L -208.913 10.361 L -208.913 11.361 L -208.913 16.789 C -209.018 25.485 -213.021 30.817 -218.323 33.67 C -223.614 36.517 -230.352 37.205 -235.849 37.205 C -242.797 37.205 -249.288 36.026 -254.203 33.235 C -259.142 30.431 -262.683 25.751 -263.804 19.213 C -264.35 15.721 -264.481 12.494 -263.608 8.472 C -261.727 0.287 -253.797 -5.124 -245.999 -9.496 C -238.199 -13.869 -230.584 -17.243 -228.842 -21.947 C -228.169 -23.617 -228.396 -25.735 -228.741 -27.071 C -229.007 -28.273 -229.459 -29.265 -230.45 -30.101 C -231.478 -30.969 -232.865 -31.492 -235.272 -31.492 C -237.526 -31.492 -239.103 -30.927 -240.296 -29.836 C -241.476 -28.757 -242.074 -27.413 -242.035 -25.506 L -242.041 -18.032 L -242.042 -17.033 L -243.041 -17.033 L -263.707 -17.033 L -264.707 -17.033 L -264.707 -18.033 L -264.707 -23.974 C -264.635 -32.839 -261.068 -38.898 -255.704 -42.467 C -250.354 -46.026 -243.053 -47.383 -235.7 -47.383 C -228.654 -47.383 -222.04 -46.144 -217.055 -43.262 C -212.045 -40.366 -208.486 -35.55 -207.469 -28.877 C -206.591 -22.079 -207.258 -17.587 -207.616 -15.924 C -209.445 -7.529 -217.803 -1.936 -225.817 2.441 C -229.826 4.631 -233.755 6.572 -236.809 8.519 C -238.328 9.487 -239.573 10.412 -240.537 11.385 C -241.013 11.866 -241.372 12.303 -241.674 12.784 C -241.973 13.259 -242.392 14.429 -242.392 14.429 M -495.54 14.321 C -495.904 15.748 -495.81 17.197 -495.613 17.969 C -495.376 19.12 -494.943 20.133 -493.996 20.994 C -493.018 21.883 -491.725 22.427 -489.463 22.427 C -487.368 22.427 -485.941 21.87 -484.843 20.774 C -483.749 19.681 -483.194 18.298 -483.226 16.354 L -483.226 11.534 L -483.226 10.534 L -482.226 10.534 L -462.801 10.534 L -461.801 10.534 L -461.801 11.534 L -461.801 17.005 C -461.906 25.782 -465.968 31.171 -471.341 34.059 C -476.704 36.942 -483.529 37.646 -489.086 37.646 C -496.092 37.646 -502.637 36.449 -507.594 33.63 C -512.575 30.797 -516.145 26.081 -517.277 19.497 C -517.849 15.942 -517.942 12.685 -517.113 8.633 C -515.214 0.358 -507.208 -5.107 -499.331 -9.525 C -491.453 -13.945 -483.745 -17.365 -481.986 -22.134 C -481.266 -23.774 -481.517 -25.878 -481.877 -27.274 C -482.166 -28.494 -482.633 -29.509 -483.64 -30.359 C -484.683 -31.24 -486.084 -31.772 -488.512 -31.772 C -490.773 -31.772 -492.35 -31.199 -493.543 -30.09 C -494.725 -28.992 -495.324 -27.616 -495.287 -25.677 L -495.314 -18.183 L -495.318 -17.187 L -496.314 -17.187 L -517.212 -17.187 L -518.212 -17.187 L -518.212 -18.187 L -518.212 -24.142 C -518.14 -33.106 -514.524 -39.225 -509.098 -42.829 C -503.686 -46.423 -496.31 -47.79 -488.901 -47.79 C -481.774 -47.79 -475.102 -46.54 -470.075 -43.629 C -465.023 -40.703 -461.438 -35.846 -460.4 -29.1 C -459.464 -22.234 -460.173 -17.689 -460.492 -16.017 C -462.354 -7.523 -470.81 -1.885 -478.915 2.526 C -482.969 4.732 -486.941 6.688 -490.027 8.65 C -491.563 9.626 -492.821 10.56 -493.794 11.543 C -494.274 12.028 -494.637 12.47 -494.942 12.956 C -495.243 13.436 -495.665 14.619 -495.665 14.619" style="fill-rule: nonzero; paint-order: stroke; fill: url(#gradient-0); stroke: rgb(0, 0, 0);" id="path20"/>
        </g>
      </g>
    </g>
  </g>
  <g id="g-1" transform="matrix(13.020071, 0, 0, -12.944053, 1251.138672, 1616.314941)">
    <g id="g-2">
      <g id="g-3" clip-path="url(#clip-1)">
        <g id="g-4" transform="translate(558.9328,88.5098)">
          <path d="M -239.266 14.267 C -239.601 15.665 -239.502 17.074 -239.333 17.856 C -239.083 19.015 -238.646 20.023 -237.709 20.875 C -236.741 21.753 -235.471 22.286 -233.251 22.286 C -231.185 22.286 -229.785 21.737 -228.705 20.652 C -227.629 19.571 -227.084 18.202 -227.116 16.274 L -227.116 11.512 L -227.116 10.512 L -226.116 10.512 L -206.916 10.512 L -205.916 10.512 L -205.916 11.512 L -205.916 16.94 C -206.021 25.636 -210.024 30.968 -215.326 33.821 C -220.617 36.668 -227.355 37.356 -232.852 37.356 C -239.8 37.356 -246.291 36.177 -251.206 33.386 C -256.145 30.582 -259.686 25.902 -260.807 19.364 C -261.353 15.872 -261.484 12.645 -260.611 8.623 C -258.73 0.438 -250.8 -4.973 -243.002 -9.345 C -235.202 -13.718 -227.587 -17.092 -225.845 -21.796 C -225.172 -23.466 -225.399 -25.584 -225.744 -26.92 C -226.01 -28.122 -226.462 -29.114 -227.453 -29.95 C -228.481 -30.818 -229.868 -31.341 -232.275 -31.341 C -234.529 -31.341 -236.106 -30.776 -237.299 -29.685 C -238.479 -28.606 -239.077 -27.262 -239.038 -25.355 L -239.044 -17.881 L -239.045 -16.882 L -240.044 -16.882 L -260.71 -16.882 L -261.71 -16.882 L -261.71 -17.882 L -261.71 -23.823 C -261.638 -32.688 -258.071 -38.747 -252.707 -42.316 C -247.357 -45.875 -240.056 -47.232 -232.703 -47.232 C -225.657 -47.232 -219.043 -45.993 -214.058 -43.111 C -209.048 -40.215 -205.489 -35.399 -204.472 -28.726 C -203.594 -21.928 -204.261 -17.436 -204.619 -15.773 C -206.448 -7.378 -214.806 -1.785 -222.82 2.592 C -226.829 4.782 -230.758 6.723 -233.812 8.67 C -235.331 9.638 -236.576 10.563 -237.54 11.536 C -238.016 12.017 -238.375 12.454 -238.677 12.935 C -238.976 13.41 -239.395 14.58 -239.395 14.58" style="fill-rule: nonzero; paint-order: stroke; fill: url(#gradient-1); stroke: rgb(0, 0, 0);" id="path-2"/>
        </g>
      </g>
    </g>
  </g>
</svg>